<?xml version="1.0" encoding="iso-8859-1"?>
<!-- Generator: Adobe Illustrator 19.2.0, SVG Export Plug-In . SVG Version: 6.00 Build 0)  -->
<svg xmlns="http://www.w3.org/2000/svg" xmlns:xlink="http://www.w3.org/1999/xlink" version="1.1" id="Layer_1" x="0px" y="0px" viewBox="0 0 40 40" style="enable-background:new 0 0 40 40;" xml:space="preserve">
<g>
	
		<rect x="29.499" y="8.545" transform="matrix(0.7072 -0.7071 0.7071 0.7072 2.1337 25.4853)" style="fill:#98CCFD;" width="4.669" height="3.243"/>
	<g>
		<path style="fill:#4788C7;" d="M32.338,8.077l1.586,1.586l-2.594,2.594l-1.586-1.586L32.338,8.077 M32.338,6.662l-4.008,4.008l3,3    l4.008-4.008L32.338,6.662L32.338,6.662z"/>
	</g>
</g>
<g>
	<rect x="16.5" y="4.5" style="fill:#98CCFD;" width="6" height="3"/>
	<path style="fill:#4788C7;" d="M22,5v2h-5V5H22 M23,4h-7v4h7V4L23,4z"/>
</g>
<g>
	<path style="fill:#B6DCFE;" d="M16,4.5c-0.275,0-0.5-0.224-0.5-0.5V1c0-0.276,0.225-0.5,0.5-0.5h7c0.275,0,0.5,0.224,0.5,0.5v3   c0,0.276-0.225,0.5-0.5,0.5H16z"/>
	<g>
		<path style="fill:#4788C7;" d="M23,1v3h-7V1H23 M23,0h-7c-0.552,0-1,0.448-1,1v3c0,0.552,0.448,1,1,1h7c0.552,0,1-0.448,1-1V1    C24,0.448,23.552,0,23,0L23,0z"/>
	</g>
</g>
<g>
	<path style="fill:#B6DCFE;" d="M34.261,11.49c-0.081,0-0.156-0.031-0.213-0.088l-3.46-3.459c-0.117-0.117-0.117-0.309,0-0.426   l1.929-1.929C32.573,5.531,32.649,5.5,32.729,5.5s0.156,0.031,0.213,0.088l3.459,3.459C36.459,9.104,36.49,9.18,36.49,9.26   s-0.031,0.156-0.089,0.212l-1.929,1.929C34.416,11.458,34.341,11.49,34.261,11.49z"/>
	<g>
		<path style="fill:#4788C7;" d="M32.73,6.082l3.178,3.178l-1.647,1.647L31.082,7.73L32.73,6.082 M32.73,5    c-0.205,0-0.41,0.078-0.566,0.235l-1.929,1.929c-0.313,0.313-0.313,0.82,0,1.133l3.459,3.459c0.156,0.156,0.361,0.235,0.566,0.235    c0.205,0,0.41-0.078,0.566-0.235l1.929-1.929c0.313-0.313,0.313-0.82,0-1.133l-3.459-3.459C33.14,5.078,32.935,5,32.73,5L32.73,5z    "/>
	</g>
</g>
<g>
	<g>
		<path style="fill:#B6DCFE;" d="M19.5,39.5c-8.822,0-16-7.178-16-16s7.178-16,16-16s16,7.178,16,16S28.322,39.5,19.5,39.5z"/>
	</g>
	<g>
		<path style="fill:#4788C7;" d="M19.5,8C28.047,8,35,14.953,35,23.5S28.047,39,19.5,39S4,32.047,4,23.5S10.953,8,19.5,8 M19.5,7    C10.387,7,3,14.387,3,23.5S10.387,40,19.5,40S36,32.613,36,23.5S28.613,7,19.5,7L19.5,7z"/>
	</g>
</g>
<g>
	<path style="fill:#FFFFFF;" d="M19.5,36.5c-7.168,0-13-5.832-13-13s5.832-13,13-13s13,5.832,13,13S26.668,36.5,19.5,36.5z"/>
	<g>
		<path style="fill:#4788C7;" d="M19.5,11C26.393,11,32,16.607,32,23.5S26.393,36,19.5,36S7,30.393,7,23.5S12.607,11,19.5,11     M19.5,10C12.044,10,6,16.044,6,23.5S12.044,37,19.5,37S33,30.956,33,23.5S26.956,10,19.5,10L19.5,10z"/>
	</g>
</g>
<line style="fill:none;stroke:#4788C7;stroke-linecap:round;stroke-miterlimit:10;" x1="14" y1="18" x2="19.5" y2="23.5"/>
<g>
	<circle style="fill:#4788C7;" cx="19.5" cy="23.5" r="1.5"/>
</g>
<path style="fill:#4788C7;" d="M19.5,10L19.5,10c0.275,0,0.5,0.225,0.5,0.5v3c0,0.275-0.225,0.5-0.5,0.5l0,0  c-0.275,0-0.5-0.225-0.5-0.5v-3C19,10.225,19.225,10,19.5,10z"/>
<path style="fill:#4788C7;" d="M19.5,33L19.5,33c0.275,0,0.5,0.225,0.5,0.5v3c0,0.275-0.225,0.5-0.5,0.5l0,0  c-0.275,0-0.5-0.225-0.5-0.5v-3C19,33.225,19.225,33,19.5,33z"/>
<path style="fill:#4788C7;" d="M6,23.5L6,23.5C6,23.225,6.225,23,6.5,23h3c0.275,0,0.5,0.225,0.5,0.5l0,0c0,0.275-0.225,0.5-0.5,0.5  h-3C6.225,24,6,23.775,6,23.5z"/>
<path style="fill:#4788C7;" d="M29,23.5L29,23.5c0-0.275,0.225-0.5,0.5-0.5h3c0.275,0,0.5,0.225,0.5,0.5l0,0  c0,0.275-0.225,0.5-0.5,0.5h-3C29.225,24,29,23.775,29,23.5z"/>
<path style="fill:#4788C7;" d="M28.092,18.539L28.092,18.539c-0.138-0.238-0.055-0.546,0.183-0.683l2.233-1.289  c0.238-0.137,0.546-0.055,0.683,0.183l0,0c0.137,0.238,0.055,0.546-0.183,0.683l-2.233,1.289  C28.537,18.86,28.23,18.777,28.092,18.539z"/>
<path style="fill:#4788C7;" d="M26.25,11.809L26.25,11.809c-0.238-0.138-0.546-0.055-0.683,0.183l-1.287,2.229  c-0.138,0.238-0.055,0.546,0.183,0.683l0,0c0.238,0.137,0.546,0.055,0.683-0.183l1.287-2.229  C26.571,12.254,26.488,11.946,26.25,11.809z"/>
<path style="fill:#4788C7;" d="M10.908,18.539L10.908,18.539c0.137-0.238,0.055-0.546-0.183-0.683l-2.233-1.289  c-0.238-0.137-0.546-0.055-0.683,0.183h0c-0.137,0.238-0.055,0.546,0.183,0.683l2.233,1.289  C10.463,18.86,10.77,18.777,10.908,18.539z"/>
<path style="fill:#4788C7;" d="M12.75,11.809L12.75,11.809c0.238-0.138,0.546-0.055,0.683,0.183l1.287,2.229  c0.137,0.238,0.055,0.546-0.183,0.683h0c-0.238,0.137-0.546,0.055-0.683-0.183l-1.287-2.229  C12.429,12.254,12.512,11.946,12.75,11.809z"/>
<path style="fill:#4788C7;" d="M28.092,28.461L28.092,28.461c-0.138,0.238-0.055,0.546,0.183,0.683l2.233,1.289  c0.238,0.137,0.546,0.055,0.683-0.183l0,0c0.137-0.238,0.055-0.546-0.183-0.683l-2.233-1.289  C28.537,28.14,28.23,28.223,28.092,28.461z"/>
<path style="fill:#4788C7;" d="M26.25,35.191L26.25,35.191c-0.238,0.138-0.546,0.055-0.683-0.183l-1.287-2.229  c-0.138-0.238-0.055-0.546,0.183-0.683v0c0.238-0.137,0.546-0.055,0.683,0.183l1.287,2.229  C26.571,34.746,26.488,35.054,26.25,35.191z"/>
<path style="fill:#4788C7;" d="M10.908,28.461L10.908,28.461c0.138,0.238,0.055,0.546-0.183,0.683l-2.233,1.289  c-0.238,0.137-0.546,0.055-0.683-0.183h0c-0.137-0.238-0.055-0.546,0.183-0.683l2.233-1.289  C10.463,28.14,10.77,28.223,10.908,28.461z"/>
<path style="fill:#4788C7;" d="M12.75,35.191L12.75,35.191c0.238,0.138,0.546,0.055,0.683-0.183l1.287-2.229  c0.137-0.238,0.055-0.546-0.183-0.683l0,0c-0.238-0.137-0.546-0.055-0.683,0.183l-1.287,2.229  C12.429,34.746,12.512,35.054,12.75,35.191z"/>
</svg>
